<?xml version="1.0" encoding="iso-8859-1"?>
<!-- Uploaded to: SVG Repo, www.svgrepo.com, Generator: SVG Repo Mixer Tools -->
<svg version="1.1" id="Layer_1" xmlns="http://www.w3.org/2000/svg" xmlns:xlink="http://www.w3.org/1999/xlink" 
	 viewBox="0 0 512 512" xml:space="preserve">
<rect x="67.108" y="200.855" style="fill:#E78600;" width="377.78" height="260.943"/>
<rect x="249.107" y="200.855" style="fill:#C57300;" width="195.789" height="260.943"/>
<path style="fill:#FAD52D;" d="M444.892,286.278l-68.447,96.241L270.664,251.658c-1.016-1.816-2.375-3.478-4.091-4.866
	c-7.219-5.84-17.806-4.721-23.645,2.498L135.169,382.516l-68.061-95.802v58.059l53.488,75.288c3.046,4.287,7.923,6.903,13.181,7.068
	c0.176,0.006,0.351,0.008,0.526,0.008c5.066,0,9.874-2.287,13.071-6.239l108.463-134.094l108.391,134.09
	c3.198,3.955,8.006,6.243,13.075,6.243c0.173,0,0.346-0.002,0.519-0.008c5.257-0.163,10.135-2.775,13.183-7.061l53.889-75.773
	v-58.016H444.892z"/>
<g>
	<path style="fill:#A16102;" d="M444.892,217.431H67.108c-18.57,0-33.625-15.055-33.625-33.625s15.055-33.625,33.625-33.625h377.784
		c18.57,0,33.625,15.055,33.625,33.625S463.462,217.431,444.892,217.431z"/>
	<path style="fill:#A16102;" d="M444.892,512H67.108c-18.57,0-33.625-15.055-33.625-33.625s15.055-33.625,33.625-33.625h377.784
		c18.57,0,33.625,15.055,33.625,33.625S463.462,512,444.892,512z"/>
</g>
<path style="fill:#BDAC92;" d="M368.436,115.73c-1.502,0-3.029-0.203-4.545-0.629L70.88,33.006
	c-8.941-2.504-14.158-11.783-11.653-20.724S71.013-1.881,79.951,0.63l293.011,82.095c8.941,2.504,14.158,11.783,11.653,20.724
	C382.535,110.873,375.784,115.73,368.436,115.73z"/>
<circle style="fill:#EAE6DD;" cx="389.784" cy="104.9" r="46.788"/>
<path style="fill:#D7CCBD;" d="M143.565,115.73c-7.349,0-14.1-4.857-16.18-12.281c-2.505-8.942,2.712-18.22,11.653-20.724
	L432.049,0.63c8.939-2.506,18.22,2.711,20.726,11.652s-2.712,18.22-11.653,20.724l-293.01,82.095
	C146.594,115.527,145.067,115.73,143.565,115.73z"/>
<circle style="fill:#EAE6DD;" cx="122.217" cy="104.9" r="46.788"/>
<g>
	<path style="fill:#844D00;" d="M444.892,444.749H249.108V512h195.783c18.57,0,33.625-15.055,33.625-33.625
		S463.462,444.749,444.892,444.749z"/>
	<path style="fill:#844D00;" d="M444.892,150.18H249.108v67.251h195.783c18.57,0,33.625-15.055,33.625-33.625
		S463.462,150.18,444.892,150.18z"/>
</g>
<path style="fill:#E0BB10;" d="M376.445,382.519L270.664,251.658c-1.016-1.816-2.375-3.478-4.091-4.866
	c-5.098-4.122-11.866-4.762-17.465-2.25v50.576l6.727-8.317l108.391,134.09c3.198,3.955,8.006,6.243,13.075,6.243
	c0.173,0,0.346-0.002,0.519-0.008c5.257-0.163,10.135-2.775,13.183-7.061l53.889-75.773v-58.017L376.445,382.519z"/>
</svg>